<?xml version="1.0" encoding="utf-8"?>
<!-- Generator: Adobe Illustrator 26.0.1, SVG Export Plug-In . SVG Version: 6.00 Build 0)  -->
<svg version="1.1" id="body_1" xmlns="http://www.w3.org/2000/svg" xmlns:xlink="http://www.w3.org/1999/xlink" x="0px" y="0px"
	 viewBox="0 0 65 43" style="enable-background:new 0 0 65 43;" xml:space="preserve">
<style type="text/css">
	.st0{fill:#FFFFFF;}
	.st1{font-family:'Arial-BoldMT';}
	.st2{font-size:2.7632px;}
</style>
<g transform="matrix(0.20000002 0 0 0.20000002 -0 0.02779999)">
	<g transform="matrix(1 0 0 1 -76.298 -404)">
		<g transform="matrix(1 0 0 1 94 404)">
			<path class="st0" d="M139.8,71.7c0,1.3-0.4,2.3-1.3,3.2c-0.9,0.9-2,1.3-3.2,1.3c-1.3,0-2.3-0.4-3.2-1.3c-0.9-0.9-1.3-2-1.3-3.2
				s0.4-2.3,1.3-3.2s2-1.3,3.2-1.3c1.3,0,2.3,0.4,3.2,1.3S139.8,70.5,139.8,71.7c0,0.1,0,0.1,0,0.2"/>
			<path class="st0" d="M171.9,71.7c0,1.3-0.4,2.3-1.3,3.2c-0.9,0.9-2,1.3-3.2,1.3c-1.3,0-2.3-0.4-3.2-1.3c-0.9-0.9-1.3-2-1.3-3.2
				s0.4-2.3,1.3-3.2s2-1.3,3.2-1.3c1.3,0,2.3,0.4,3.2,1.3S171.9,70.5,171.9,71.7c0,0.1,0,0.1,0,0.2"/>
			<path class="st0" d="M103.5,120.8H92.5v-16.6H79.7v16.6H68.6v-37c0-2,1.6-3.7,3.7-3.7l0,0h7.4v15.1h12.8V80.1h11.1V120.8
				L103.5,120.8z"/>
			<path class="st0" d="M103.8,106v14.8h-11V80.1h13.3c11.1,0,16.6,4,16.6,12c0,4.7-2.3,8.4-6.9,10.9l0,0l11.9,17.7h-12.5l-8.6-14.8
				L103.8,106L103.8,106z M103.8,97.7h2.1c3.8,0,5.8-1.7,5.8-5.1c0-2.8-1.9-4.2-5.7-4.2l0,0h-2.2L103.8,97.7L103.8,97.7z"/>
			<path class="st0" d="M145.4,120.8l-8.3-29.1c0-0.1-0.2-0.2-0.3-0.2c0.4,5,0.6,8.9,0.6,11.6l0,0v17.4c0,0.2-0.1,0.3-0.3,0.3l0,0
				H128c-0.2,0-0.3-0.1-0.3-0.3l0,0V83.8c0-1,0.4-1.9,1.1-2.6c0.7-0.7,1.6-1.1,2.6-1.1l0,0h10.8c0.1,0,0.2,0.1,0.3,0.2l0,0L151,109
				c0,0.1-0.1,0,0,0l0,0l8.3-28.7c0-0.1,0.2-0.2,0.3-0.2l0,0h10.7c2.1,0,3.7,1.7,3.7,3.7l0,0v36.7c0,0.2-0.1,0.3-0.3,0.3l0,0h-9.5
				c-0.2,0-0.3-0.1-0.3-0.3l0,0V103c0-0.9,0-2,0-3.1c0-0.8,0.1-3.5,0.4-8.3c-0.1,0-0.3,0.1-0.3,0.2l0,0l-8.1,28.8
				c0,0.1-0.2,0.2-0.3,0.2l0,0L145.4,120.8L145.4,120.8z"/>
			<path class="st0" d="M206.6,108.5c0,2.4-0.6,4.7-1.9,6.7c-1.4,2-3.3,3.6-5.5,4.6c-2.7,1.1-5.6,1.7-8.5,1.6
				c-2.3,0-4.6-0.2-6.8-0.6c-1.1-0.2-2.2-0.6-3.3-1c-1.5-0.5-2.4-1.9-2.4-3.5l0,0V109c2.1,1.1,4.3,1.9,6.5,2.5
				c2,0.6,4.1,0.9,6.2,0.9c1.6,0,2.8-0.3,3.6-0.8c0.7-0.5,1.2-1.3,1.1-2.2c0-0.5-0.2-1-0.5-1.5c-0.4-0.5-0.9-0.9-1.5-1.3
				c-0.7-0.4-2.5-1.3-5.4-2.6c-2.7-1.2-4.6-2.4-6-3.5c-1.3-1.1-2.3-2.4-3-3.9c-0.7-1.7-1-3.4-1-5.2c0-3.8,1.4-6.7,4.1-8.8
				c1.8-1.4,5.6-2.4,11.2-3.1c3.1,0,6.3,0.5,9.3,1.5c1,0.3,1.8,1,2.2,1.9c0.4,0.9,0.5,2,0.1,2.9l0,0l-2,5.1
				c-3.8-1.7-7.1-2.6-9.9-2.6c-1.4,0-2.5,0.3-3.1,0.8c-0.6,0.4-1,1.1-1,1.9c0,0.9,0.5,1.7,1.2,2.1c0.8,0.6,3.1,1.8,6.7,3.5
				c3.5,1.6,5.9,3.3,7.3,5.1C205.4,102.8,206.1,105.1,206.6,108.5z"/>
		</g>
		<g transform="matrix(1 0 0 1 76.3 404)">
			<text transform="matrix(5 0 0 5 86.4667 139.8862)" class="st0 st1 st2">Human Resources</text>
			<text transform="matrix(5 0 0 5 86.4667 153.6899)" class="st0 st1 st2">Management System</text>
		</g>
	</g>
</g>
</svg>
